<svg xmlns="http://www.w3.org/2000/svg" xmlns:xlink="http://www.w3.org/1999/xlink" width="500" zoomAndPan="magnify" viewBox="0 0 375 374.999991" height="500" preserveAspectRatio="xMidYMid meet" version="1.0"><defs><clipPath id="d5a1ae6bd1"><path d="M 82.5 37.5 L 292.5 37.5 L 292.5 337.5 L 82.5 337.5 Z M 82.5 37.5 " clip-rule="nonzero"/></clipPath></defs><g clip-path="url(#d5a1ae6bd1)"><path fill="#010080" d="M 187.5 37.5 C 129.523438 37.5 82.5 84.523438 82.5 142.5 C 82.5 221.25 187.5 337.5 187.5 337.5 C 187.5 337.5 292.5 221.25 292.5 142.5 C 292.5 84.523438 245.476562 37.5 187.5 37.5 Z M 187.5 180 C 166.800781 180 150 163.199219 150 142.5 C 150 121.800781 166.800781 105 187.5 105 C 208.199219 105 225 121.800781 225 142.5 C 225 163.199219 208.199219 180 187.5 180 Z M 187.5 180 " fill-opacity="1" fill-rule="nonzero"/></g></svg>