<svg xmlns="http://www.w3.org/2000/svg" xmlns:xlink="http://www.w3.org/1999/xlink" width="500" zoomAndPan="magnify" viewBox="0 0 375 374.999991" height="500" preserveAspectRatio="xMidYMid meet" version="1.0"><defs><clipPath id="a93f87abbe"><path d="M 43.878906 43.878906 L 331.128906 43.878906 L 331.128906 331.128906 L 43.878906 331.128906 Z M 43.878906 43.878906 " clip-rule="nonzero"/></clipPath></defs><path fill="#010080" d="M 192.292969 307.191406 C 192.292969 307.503906 192.261719 307.816406 192.199219 308.125 C 192.136719 308.433594 192.046875 308.734375 191.925781 309.023438 C 191.804688 309.3125 191.660156 309.589844 191.484375 309.851562 C 191.308594 310.113281 191.113281 310.355469 190.890625 310.578125 C 190.667969 310.800781 190.425781 310.996094 190.164062 311.171875 C 189.902344 311.347656 189.625 311.492188 189.335938 311.613281 C 189.046875 311.734375 188.746094 311.824219 188.4375 311.886719 C 188.128906 311.949219 187.816406 311.980469 187.503906 311.980469 C 187.191406 311.980469 186.878906 311.949219 186.570312 311.886719 C 186.261719 311.824219 185.960938 311.734375 185.671875 311.613281 C 185.382812 311.492188 185.105469 311.347656 184.84375 311.171875 C 184.582031 310.996094 184.339844 310.800781 184.117188 310.578125 C 183.894531 310.355469 183.699219 310.113281 183.523438 309.851562 C 183.347656 309.589844 183.199219 309.3125 183.082031 309.023438 C 182.960938 308.734375 182.871094 308.433594 182.808594 308.125 C 182.746094 307.816406 182.714844 307.503906 182.714844 307.191406 C 182.714844 306.878906 182.746094 306.566406 182.808594 306.257812 C 182.871094 305.949219 182.960938 305.648438 183.082031 305.359375 C 183.199219 305.070312 183.347656 304.792969 183.523438 304.53125 C 183.699219 304.269531 183.894531 304.027344 184.117188 303.804688 C 184.339844 303.582031 184.582031 303.386719 184.84375 303.210938 C 185.105469 303.035156 185.382812 302.886719 185.671875 302.769531 C 185.960938 302.648438 186.261719 302.558594 186.570312 302.496094 C 186.878906 302.433594 187.191406 302.402344 187.503906 302.402344 C 187.816406 302.402344 188.128906 302.433594 188.4375 302.496094 C 188.746094 302.558594 189.046875 302.648438 189.335938 302.769531 C 189.625 302.886719 189.902344 303.035156 190.164062 303.210938 C 190.425781 303.386719 190.667969 303.582031 190.890625 303.804688 C 191.113281 304.027344 191.308594 304.269531 191.484375 304.53125 C 191.660156 304.792969 191.804688 305.070312 191.925781 305.359375 C 192.046875 305.648438 192.136719 305.949219 192.199219 306.257812 C 192.261719 306.566406 192.292969 306.878906 192.292969 307.191406 Z M 192.292969 307.191406 " fill-opacity="1" fill-rule="nonzero"/><g clip-path="url(#a93f87abbe)"><path fill="#010080" d="M 238.371094 251.535156 C 240.585938 250.378906 242.757812 249.144531 244.890625 247.839844 C 247.023438 246.535156 249.105469 245.15625 251.144531 243.710938 C 253.183594 242.261719 255.167969 240.746094 257.101562 239.164062 C 259.039062 237.582031 260.917969 235.933594 262.742188 234.226562 C 264.5625 232.515625 266.328125 230.746094 268.03125 228.914062 C 269.734375 227.085938 271.371094 225.199219 272.945312 223.257812 C 274.519531 221.316406 276.027344 219.324219 277.46875 217.28125 C 278.90625 215.238281 280.277344 213.148438 281.574219 211.011719 C 282.871094 208.875 284.09375 206.699219 285.246094 204.476562 C 286.394531 202.257812 287.46875 200.003906 288.464844 197.710938 C 289.460938 195.417969 290.378906 193.09375 291.214844 190.738281 C 292.054688 188.382812 292.8125 186.003906 293.488281 183.597656 C 294.167969 181.191406 294.761719 178.765625 295.273438 176.316406 C 295.785156 173.871094 296.214844 171.410156 296.558594 168.933594 C 296.90625 166.457031 297.164062 163.972656 297.339844 161.480469 C 297.519531 158.988281 297.609375 156.492188 297.617188 153.992188 C 297.617188 93.285156 248.210938 43.878906 187.503906 43.878906 C 126.796875 43.878906 77.390625 93.285156 77.390625 153.992188 C 77.398438 156.492188 77.488281 158.988281 77.664062 161.480469 C 77.84375 163.972656 78.101562 166.457031 78.449219 168.933594 C 78.792969 171.410156 79.222656 173.871094 79.734375 176.316406 C 80.246094 178.765625 80.839844 181.191406 81.519531 183.597656 C 82.195312 186.003906 82.953125 188.382812 83.792969 190.738281 C 84.628906 193.09375 85.546875 195.417969 86.542969 197.710938 C 87.539062 200.003906 88.613281 202.257812 89.761719 204.476562 C 90.914062 206.699219 92.136719 208.875 93.433594 211.011719 C 94.730469 213.148438 96.101562 215.238281 97.539062 217.28125 C 98.980469 219.324219 100.488281 221.316406 102.0625 223.257812 C 103.636719 225.199219 105.273438 227.085938 106.976562 228.914062 C 108.679688 230.746094 110.445312 232.515625 112.265625 234.226562 C 114.089844 235.933594 115.96875 237.582031 117.90625 239.164062 C 119.839844 240.746094 121.824219 242.261719 123.863281 243.710938 C 125.902344 245.15625 127.984375 246.535156 130.117188 247.839844 C 132.25 249.144531 134.421875 250.378906 136.636719 251.535156 C 75.046875 256.15625 43.878906 269.226562 43.878906 290.433594 C 43.878906 324.089844 121.964844 331.128906 187.503906 331.128906 C 253.042969 331.128906 331.128906 324.089844 331.128906 290.433594 C 331.128906 269.226562 299.960938 256.15625 238.371094 251.535156 Z M 106.117188 153.992188 C 106.117188 109.109375 142.621094 72.605469 187.503906 72.605469 C 232.386719 72.605469 268.890625 109.109375 268.890625 153.992188 C 268.890625 198.875 232.386719 235.378906 187.503906 235.378906 C 142.621094 235.378906 106.117188 198.875 106.117188 153.992188 Z M 187.503906 321.554688 C 104.824219 321.554688 53.453125 309.632812 53.453125 290.433594 C 53.453125 274.730469 87.78125 263.863281 147.625 260.417969 L 156.910156 269.753906 C 126.847656 271.429688 86.964844 276.359375 86.964844 290.433594 C 86.964844 306.378906 137.832031 310.542969 168.113281 311.644531 L 168.257812 311.644531 C 168.574219 311.648438 168.882812 311.625 169.195312 311.570312 C 169.503906 311.515625 169.804688 311.429688 170.097656 311.316406 C 170.390625 311.199219 170.667969 311.058594 170.933594 310.890625 C 171.195312 310.71875 171.441406 310.527344 171.667969 310.308594 C 171.894531 310.089844 172.097656 309.851562 172.277344 309.59375 C 172.457031 309.335938 172.609375 309.0625 172.738281 308.777344 C 172.863281 308.488281 172.960938 308.191406 173.027344 307.882812 C 173.09375 307.578125 173.132812 307.265625 173.136719 306.953125 C 173.144531 306.636719 173.121094 306.324219 173.0625 306.015625 C 173.007812 305.707031 172.925781 305.40625 172.808594 305.113281 C 172.695312 304.820312 172.554688 304.542969 172.386719 304.277344 C 172.214844 304.011719 172.023438 303.765625 171.804688 303.539062 C 171.585938 303.3125 171.347656 303.109375 171.089844 302.929688 C 170.832031 302.75 170.5625 302.597656 170.273438 302.472656 C 169.984375 302.34375 169.6875 302.246094 169.382812 302.179688 C 169.074219 302.113281 168.765625 302.074219 168.449219 302.070312 C 122.632812 300.441406 101.328125 293.835938 97.066406 290.433594 C 101.257812 287.082031 121.914062 280.667969 166.054688 278.898438 L 178.074219 290.914062 C 179.359375 292.050781 180.808594 292.917969 182.417969 293.519531 C 184.027344 294.125 185.691406 294.417969 187.40625 294.410156 C 189.207031 294.410156 190.945312 294.09375 192.628906 293.460938 C 194.3125 292.824219 195.828125 291.914062 197.175781 290.722656 L 208.953125 278.898438 C 253.09375 280.691406 273.726562 287.082031 277.941406 290.433594 C 273.679688 293.835938 252.421875 300.441406 206.558594 302.070312 C 206.242188 302.074219 205.933594 302.113281 205.625 302.179688 C 205.320312 302.246094 205.023438 302.34375 204.734375 302.472656 C 204.445312 302.597656 204.175781 302.75 203.917969 302.929688 C 203.660156 303.109375 203.421875 303.3125 203.203125 303.539062 C 202.984375 303.765625 202.792969 304.011719 202.621094 304.277344 C 202.453125 304.542969 202.3125 304.820312 202.199219 305.113281 C 202.082031 305.40625 202 305.707031 201.941406 306.015625 C 201.886719 306.324219 201.863281 306.636719 201.871094 306.953125 C 201.875 307.265625 201.914062 307.578125 201.980469 307.882812 C 202.046875 308.191406 202.144531 308.488281 202.269531 308.777344 C 202.398438 309.0625 202.550781 309.335938 202.730469 309.59375 C 202.910156 309.851562 203.113281 310.089844 203.339844 310.308594 C 203.566406 310.527344 203.8125 310.71875 204.074219 310.890625 C 204.339844 311.058594 204.617188 311.199219 204.910156 311.316406 C 205.203125 311.429688 205.503906 311.515625 205.8125 311.570312 C 206.125 311.625 206.433594 311.648438 206.75 311.644531 L 206.894531 311.644531 C 237.175781 310.542969 288.042969 306.378906 288.042969 290.433594 C 288.042969 276.359375 248.160156 271.429688 218.097656 269.753906 L 227.382812 260.417969 C 287.226562 263.863281 321.554688 274.730469 321.554688 290.433594 C 321.554688 309.632812 270.183594 321.554688 187.503906 321.554688 Z M 187.503906 321.554688 " fill-opacity="1" fill-rule="nonzero"/></g><path fill="#010080" d="M 189.300781 173.523438 L 232.984375 156.71875 L 232.984375 187.792969 C 232.992188 188.652344 232.78125 189.460938 232.355469 190.210938 C 231.925781 190.957031 231.339844 191.546875 230.589844 191.980469 C 202.023438 208.382812 173.039062 208.371094 144.417969 191.980469 C 143.667969 191.546875 143.082031 190.957031 142.652344 190.210938 C 142.226562 189.460938 142.015625 188.652344 142.023438 187.792969 L 142.023438 156.671875 L 185.828125 173.523438 C 186.984375 173.925781 188.140625 173.925781 189.300781 173.523438 Z M 189.300781 173.523438 " fill-opacity="1" fill-rule="nonzero"/><path fill="#010080" d="M 254.527344 134.839844 L 254.527344 168.355469 C 254.527344 168.667969 254.5 168.980469 254.4375 169.289062 C 254.375 169.597656 254.285156 169.894531 254.164062 170.1875 C 254.042969 170.476562 253.898438 170.753906 253.722656 171.011719 C 253.546875 171.273438 253.347656 171.515625 253.125 171.738281 C 252.90625 171.960938 252.664062 172.160156 252.402344 172.335938 C 252.140625 172.507812 251.863281 172.65625 251.574219 172.777344 C 251.28125 172.898438 250.984375 172.988281 250.675781 173.050781 C 250.367188 173.109375 250.054688 173.140625 249.742188 173.140625 C 249.425781 173.140625 249.117188 173.109375 248.808594 173.050781 C 248.5 172.988281 248.199219 172.898438 247.910156 172.777344 C 247.617188 172.65625 247.34375 172.507812 247.082031 172.335938 C 246.820312 172.160156 246.578125 171.960938 246.355469 171.738281 C 246.132812 171.515625 245.933594 171.273438 245.761719 171.011719 C 245.585938 170.753906 245.4375 170.476562 245.316406 170.1875 C 245.199219 169.894531 245.105469 169.597656 245.046875 169.289062 C 244.984375 168.980469 244.953125 168.667969 244.953125 168.355469 L 244.953125 141.785156 L 189.300781 163.238281 C 188.152344 163.683594 187.007812 163.683594 185.863281 163.238281 L 123.625 139.300781 C 119.6875 137.929688 119.574219 131.976562 123.433594 130.441406 L 185.707031 106.453125 C 186.859375 106.007812 188.007812 106.007812 189.15625 106.453125 L 251.394531 130.390625 C 251.835938 130.578125 252.246094 130.824219 252.617188 131.125 C 252.992188 131.425781 253.320312 131.773438 253.59375 132.167969 C 253.871094 132.5625 254.089844 132.984375 254.25 133.441406 C 254.40625 133.894531 254.5 134.359375 254.527344 134.839844 Z M 254.527344 134.839844 " fill-opacity="1" fill-rule="nonzero"/></svg>