<svg xmlns="http://www.w3.org/2000/svg" xmlns:xlink="http://www.w3.org/1999/xlink" width="500" zoomAndPan="magnify" viewBox="0 0 375 374.999991" height="500" preserveAspectRatio="xMidYMid meet" version="1.0"><defs><clipPath id="edf985126b"><path d="M 62.425781 238 L 312.925781 238 L 312.925781 326.78125 L 62.425781 326.78125 Z M 62.425781 238 " clip-rule="nonzero"/></clipPath><clipPath id="e4851e34a9"><path d="M 118 48.53125 L 258 48.53125 L 258 286 L 118 286 Z M 118 48.53125 " clip-rule="nonzero"/></clipPath></defs><g clip-path="url(#edf985126b)"><path fill="#010080" d="M 62.425781 281.5625 C 62.425781 306.535156 118.511719 326.777344 187.675781 326.777344 C 256.84375 326.777344 312.925781 306.535156 312.925781 281.5625 C 312.925781 261.25 275.769531 244.140625 224.765625 238.433594 L 200.269531 290.882812 C 197.976562 295.824219 193.035156 298.953125 187.675781 298.953125 C 182.320312 298.953125 177.378906 295.824219 175.082031 290.882812 L 150.589844 238.433594 C 99.515625 244.140625 62.425781 261.25 62.425781 281.5625 Z M 62.425781 281.5625 " fill-opacity="1" fill-rule="nonzero"/></g><g clip-path="url(#e4851e34a9)"><path fill="#010080" d="M 249.816406 151.761719 C 262.0625 125.535156 259.625 94.234375 239.585938 72.390625 C 226.296875 57.851562 207.925781 48.53125 187.675781 48.53125 C 167.429688 48.53125 149.058594 57.851562 135.769531 72.390625 C 115.726562 94.234375 113.292969 125.535156 125.539062 151.761719 L 187.675781 285.039062 Z M 145.925781 118.09375 C 145.925781 95.070312 164.644531 76.355469 187.675781 76.355469 C 210.707031 76.355469 229.425781 95.070312 229.425781 118.09375 C 229.425781 141.117188 210.707031 159.832031 187.675781 159.832031 C 164.644531 159.832031 145.925781 141.117188 145.925781 118.09375 Z M 145.925781 118.09375 " fill-opacity="1" fill-rule="nonzero"/></g></svg>