<svg xmlns="http://www.w3.org/2000/svg" xmlns:xlink="http://www.w3.org/1999/xlink" width="500" zoomAndPan="magnify" viewBox="0 0 375 374.999991" height="500" preserveAspectRatio="xMidYMid meet" version="1.0"><defs><clipPath id="7b583241b1"><path d="M 47 37.5 L 328 37.5 L 328 135 L 47 135 Z M 47 37.5 " clip-rule="nonzero"/></clipPath><clipPath id="009e3ccf4b"><path d="M 28.769531 316 L 346 316 L 346 337.5 L 28.769531 337.5 Z M 28.769531 316 " clip-rule="nonzero"/></clipPath></defs><g clip-path="url(#7b583241b1)"><path fill="#010080" d="M 327.28125 99.074219 L 327.269531 99.074219 L 257.332031 68.289062 L 187.394531 37.5 L 117.457031 68.289062 L 47.519531 99.074219 L 47.507812 99.074219 L 47.507812 134.875 L 327.28125 134.875 Z M 327.28125 99.074219 " fill-opacity="1" fill-rule="nonzero"/></g><path fill="#010080" d="M 75.054688 265.902344 C 70.90625 265.902344 67.542969 269.265625 67.542969 273.417969 C 67.542969 277.570312 70.90625 280.9375 75.054688 280.9375 L 119.417969 280.9375 C 123.566406 280.9375 126.929688 277.570312 126.929688 273.417969 C 126.929688 269.265625 123.566406 265.902344 119.417969 265.902344 L 116.914062 265.902344 L 116.914062 158.503906 L 119.417969 158.503906 C 123.566406 158.503906 126.929688 155.136719 126.929688 150.984375 C 126.929688 146.832031 123.566406 143.464844 119.417969 143.464844 L 75.054688 143.464844 C 70.90625 143.464844 67.542969 146.832031 67.542969 150.984375 C 67.542969 155.136719 70.90625 158.503906 75.054688 158.503906 L 77.558594 158.503906 L 77.558594 265.902344 Z M 75.054688 265.902344 " fill-opacity="1" fill-rule="nonzero"/><path fill="#010080" d="M 165.214844 265.902344 C 161.0625 265.902344 157.699219 269.265625 157.699219 273.417969 C 157.699219 277.570312 161.0625 280.9375 165.214844 280.9375 L 209.578125 280.9375 C 213.726562 280.9375 217.089844 277.570312 217.089844 273.417969 C 217.089844 269.265625 213.726562 265.902344 209.578125 265.902344 L 207.070312 265.902344 L 207.070312 158.503906 L 209.578125 158.503906 C 213.726562 158.503906 217.089844 155.136719 217.089844 150.984375 C 217.089844 146.832031 213.726562 143.464844 209.578125 143.464844 L 165.214844 143.464844 C 161.0625 143.464844 157.699219 146.832031 157.699219 150.984375 C 157.699219 155.136719 161.0625 158.503906 165.214844 158.503906 L 167.71875 158.503906 L 167.71875 265.902344 Z M 165.214844 265.902344 " fill-opacity="1" fill-rule="nonzero"/><path fill="#010080" d="M 256.800781 265.902344 C 252.652344 265.902344 249.289062 269.265625 249.289062 273.417969 C 249.289062 277.570312 252.652344 280.9375 256.800781 280.9375 L 301.164062 280.9375 C 305.316406 280.9375 308.679688 277.570312 308.679688 273.417969 C 308.679688 269.265625 305.316406 265.902344 301.164062 265.902344 L 298.660156 265.902344 L 298.660156 158.503906 L 301.164062 158.503906 C 305.316406 158.503906 308.679688 155.136719 308.679688 150.984375 C 308.679688 146.832031 305.316406 143.464844 301.164062 143.464844 L 256.800781 143.464844 C 252.652344 143.464844 249.289062 146.832031 249.289062 150.984375 C 249.289062 155.136719 252.652344 158.503906 256.800781 158.503906 L 259.308594 158.503906 L 259.308594 265.902344 Z M 256.800781 265.902344 " fill-opacity="1" fill-rule="nonzero"/><path fill="#010080" d="M 47.515625 296.6875 L 47.515625 300.984375 C 47.515625 304.9375 50.71875 308.144531 54.667969 308.144531 L 320.121094 308.144531 C 324.070312 308.144531 327.277344 304.9375 327.277344 300.984375 L 327.277344 296.6875 C 327.277344 292.734375 324.070312 289.527344 320.121094 289.527344 L 54.667969 289.527344 C 50.71875 289.527344 47.515625 292.734375 47.515625 296.6875 Z M 47.515625 296.6875 " fill-opacity="1" fill-rule="nonzero"/><g clip-path="url(#009e3ccf4b)"><path fill="#010080" d="M 338.730469 316.734375 L 36.058594 316.734375 C 32.105469 316.734375 28.902344 319.941406 28.902344 323.894531 L 28.902344 330.339844 C 28.902344 334.292969 32.105469 337.5 36.058594 337.5 L 338.730469 337.5 C 342.683594 337.5 345.886719 334.292969 345.886719 330.339844 L 345.886719 323.894531 C 345.886719 319.941406 342.683594 316.734375 338.730469 316.734375 Z M 338.730469 316.734375 " fill-opacity="1" fill-rule="nonzero"/></g></svg>