<svg xmlns="http://www.w3.org/2000/svg" xmlns:xlink="http://www.w3.org/1999/xlink" width="500" zoomAndPan="magnify" viewBox="0 0 375 374.999991" height="500" preserveAspectRatio="xMidYMid meet" version="1.0"><defs><clipPath id="58411448e0"><path d="M 127 37.5 L 248 37.5 L 248 185 L 127 185 Z M 127 37.5 " clip-rule="nonzero"/></clipPath><clipPath id="8bb16f2e81"><path d="M 73.5 294 L 74 294 L 74 297 L 73.5 297 Z M 73.5 294 " clip-rule="nonzero"/></clipPath><clipPath id="2efb7d1e2d"><path d="M 301 295 L 301.5 295 L 301.5 299 L 301 299 Z M 301 295 " clip-rule="nonzero"/></clipPath><clipPath id="a059a4e952"><path d="M 73.5 189 L 301.5 189 L 301.5 337.5 L 73.5 337.5 Z M 73.5 189 " clip-rule="nonzero"/></clipPath></defs><g clip-path="url(#58411448e0)"><path fill="#010080" d="M 187.5 184.21875 C 220.828125 184.21875 247.851562 151.398438 247.851562 110.914062 C 247.851562 70.429688 238.980469 37.609375 187.5 37.609375 C 136.019531 37.609375 127.148438 70.429688 127.148438 110.914062 C 127.148438 151.398438 154.167969 184.21875 187.5 184.21875 Z M 187.5 184.21875 " fill-opacity="1" fill-rule="nonzero"/></g><g clip-path="url(#8bb16f2e81)"><path fill="#010080" d="M 73.507812 296.148438 C 73.496094 293.679688 73.488281 295.453125 73.507812 296.148438 Z M 73.507812 296.148438 " fill-opacity="1" fill-rule="nonzero"/></g><g clip-path="url(#2efb7d1e2d)"><path fill="#010080" d="M 301.484375 298.074219 C 301.515625 297.398438 301.492188 293.386719 301.484375 298.074219 Z M 301.484375 298.074219 " fill-opacity="1" fill-rule="nonzero"/></g><g clip-path="url(#a059a4e952)"><path fill="#010080" d="M 301.363281 293.191406 C 300.246094 222.667969 291.035156 202.574219 220.550781 189.847656 C 220.550781 189.847656 210.628906 202.488281 187.503906 202.488281 C 164.378906 202.488281 154.453125 189.847656 154.453125 189.847656 C 84.738281 202.429688 74.96875 222.226562 73.683594 290.898438 C 73.578125 296.503906 73.53125 296.796875 73.511719 296.148438 C 73.515625 297.367188 73.519531 299.625 73.519531 303.558594 C 73.519531 303.558594 90.300781 337.386719 187.503906 337.386719 C 284.707031 337.386719 301.484375 303.558594 301.484375 303.558594 C 301.484375 301.03125 301.488281 299.273438 301.492188 298.078125 C 301.472656 298.480469 301.433594 297.699219 301.363281 293.1875 Z M 301.363281 293.191406 " fill-opacity="1" fill-rule="nonzero"/></g></svg>