<svg xmlns="http://www.w3.org/2000/svg" xmlns:xlink="http://www.w3.org/1999/xlink" width="500" zoomAndPan="magnify" viewBox="0 0 375 374.999991" height="500" preserveAspectRatio="xMidYMid meet" version="1.0"><defs><clipPath id="8cceab0716"><path d="M 65.625 37.5 L 309.375 37.5 L 309.375 337.5 L 65.625 337.5 Z M 65.625 37.5 " clip-rule="nonzero"/></clipPath></defs><g clip-path="url(#8cceab0716)"><path fill="#010080" d="M 309.046875 87.851562 C 309.046875 87.851562 309.046875 87.617188 309.046875 87.617188 C 309.046875 87.382812 308.8125 86.914062 308.578125 86.679688 C 308.578125 86.679688 308.578125 86.445312 308.34375 86.445312 C 308.109375 86.210938 307.875 85.742188 307.640625 85.507812 L 254.480469 38.671875 C 253.542969 37.96875 252.605469 37.5 251.433594 37.5 L 80.941406 37.5 C 72.511719 37.5 65.71875 43.824219 65.71875 52.253906 L 65.71875 323.917969 C 65.71875 331.175781 72.746094 337.5 80.941406 337.5 L 293.824219 337.5 C 302.253906 337.5 309.046875 331.175781 309.046875 323.449219 L 309.046875 89.023438 C 309.28125 88.554688 309.28125 88.320312 309.046875 87.851562 Z M 98.507812 70.285156 L 201.550781 70.285156 C 204.128906 70.285156 206.234375 72.394531 206.234375 74.972656 C 206.234375 77.546875 204.128906 79.65625 201.550781 79.65625 L 98.507812 79.65625 C 95.929688 79.65625 93.824219 77.546875 93.824219 74.972656 C 93.824219 72.394531 95.929688 70.285156 98.507812 70.285156 Z M 98.507812 89.023438 L 150.027344 89.023438 C 152.605469 89.023438 154.714844 91.128906 154.714844 93.707031 C 154.714844 96.28125 152.605469 98.390625 150.027344 98.390625 L 98.507812 98.390625 C 95.929688 98.390625 93.824219 96.28125 93.824219 93.707031 C 93.824219 91.128906 95.929688 89.023438 98.507812 89.023438 Z M 124.972656 289.492188 L 107.640625 303.542969 C 106.703125 304.246094 105.765625 304.480469 104.597656 304.480469 C 104.363281 304.480469 104.363281 304.480469 104.128906 304.480469 C 102.957031 304.246094 101.785156 303.777344 100.847656 302.839844 L 94.761719 295.109375 C 93.121094 293.003906 93.589844 290.191406 95.460938 288.554688 C 97.570312 286.914062 100.378906 287.382812 102.019531 289.257812 L 105.296875 293.238281 L 118.882812 282.230469 C 120.988281 280.589844 123.800781 280.824219 125.4375 282.933594 C 127.078125 284.808594 126.84375 287.851562 124.972656 289.492188 Z M 124.972656 252.019531 L 107.640625 266.070312 C 106.703125 266.773438 105.765625 267.007812 104.597656 267.007812 C 104.363281 267.007812 104.363281 267.007812 104.128906 267.007812 C 102.957031 266.773438 101.785156 266.304688 100.847656 265.367188 L 94.761719 257.640625 C 93.121094 255.53125 93.589844 252.722656 95.460938 251.082031 C 97.570312 249.445312 100.378906 249.914062 102.019531 251.785156 L 105.296875 255.765625 L 118.882812 244.761719 C 120.988281 243.121094 123.800781 243.355469 125.4375 245.460938 C 127.078125 247.335938 126.84375 250.378906 124.972656 252.019531 Z M 124.972656 214.550781 L 107.640625 228.601562 C 106.703125 229.304688 105.765625 229.539062 104.597656 229.539062 C 104.363281 229.539062 104.363281 229.539062 104.128906 229.539062 C 102.957031 229.304688 101.785156 228.835938 100.847656 227.898438 L 94.761719 220.167969 C 93.121094 218.0625 93.589844 215.25 95.460938 213.613281 C 97.570312 211.972656 100.378906 212.441406 102.019531 214.316406 L 105.296875 218.296875 L 118.882812 207.289062 C 120.988281 205.648438 123.800781 205.882812 125.4375 207.992188 C 127.078125 209.867188 126.84375 212.910156 124.972656 214.550781 Z M 124.972656 177.078125 L 107.640625 191.128906 C 106.703125 191.832031 105.765625 192.066406 104.597656 192.066406 C 104.363281 192.066406 104.363281 192.066406 104.128906 192.066406 C 102.957031 191.832031 101.785156 191.363281 100.847656 190.425781 L 94.761719 182.699219 C 93.121094 180.589844 93.589844 177.78125 95.460938 176.140625 C 97.570312 174.503906 100.378906 174.972656 102.019531 176.84375 L 105.296875 180.824219 L 118.882812 169.820312 C 120.988281 168.179688 123.800781 168.414062 125.4375 170.519531 C 127.078125 172.394531 126.84375 175.4375 124.972656 177.078125 Z M 124.972656 139.609375 L 107.640625 153.660156 C 106.703125 154.363281 105.765625 154.597656 104.597656 154.597656 C 104.363281 154.597656 104.363281 154.597656 104.128906 154.597656 C 102.957031 154.363281 101.785156 153.894531 100.847656 152.957031 L 94.761719 145.226562 C 93.121094 143.121094 93.589844 140.308594 95.460938 138.671875 C 97.570312 137.03125 100.378906 137.5 102.019531 139.375 L 105.296875 143.355469 L 118.882812 132.347656 C 120.988281 130.707031 123.800781 130.941406 125.4375 133.050781 C 127.078125 134.925781 126.84375 137.96875 124.972656 139.609375 Z M 276.492188 290.425781 L 145.34375 290.425781 C 142.769531 290.425781 140.660156 288.320312 140.660156 285.742188 C 140.660156 283.167969 142.769531 281.058594 145.34375 281.058594 L 276.492188 281.058594 C 279.070312 281.058594 281.175781 283.167969 281.175781 285.742188 C 281.175781 288.320312 279.070312 290.425781 276.492188 290.425781 Z M 276.492188 252.957031 L 145.34375 252.957031 C 142.769531 252.957031 140.660156 250.847656 140.660156 248.273438 C 140.660156 245.695312 142.769531 243.589844 145.34375 243.589844 L 276.492188 243.589844 C 279.070312 243.589844 281.175781 245.695312 281.175781 248.273438 C 281.175781 250.847656 279.070312 252.957031 276.492188 252.957031 Z M 276.492188 215.484375 L 145.34375 215.484375 C 142.769531 215.484375 140.660156 213.378906 140.660156 210.800781 C 140.660156 208.226562 142.769531 206.117188 145.34375 206.117188 L 276.492188 206.117188 C 279.070312 206.117188 281.175781 208.226562 281.175781 210.800781 C 281.175781 213.378906 279.070312 215.484375 276.492188 215.484375 Z M 276.492188 178.015625 L 145.34375 178.015625 C 142.769531 178.015625 140.660156 175.90625 140.660156 173.332031 C 140.660156 170.753906 142.769531 168.648438 145.34375 168.648438 L 276.492188 168.648438 C 279.070312 168.648438 281.175781 170.753906 281.175781 173.332031 C 281.175781 175.90625 279.070312 178.015625 276.492188 178.015625 Z M 276.492188 140.542969 L 145.34375 140.542969 C 142.769531 140.542969 140.660156 138.4375 140.660156 135.859375 C 140.660156 133.285156 142.769531 131.175781 145.34375 131.175781 L 276.492188 131.175781 C 279.070312 131.175781 281.175781 133.285156 281.175781 135.859375 C 281.175781 138.4375 279.070312 140.542969 276.492188 140.542969 Z M 259.632812 84.339844 C 256.117188 84.339844 253.074219 82.230469 253.074219 79.65625 L 253.074219 52.253906 L 291.714844 84.339844 Z M 259.632812 84.339844 " fill-opacity="1" fill-rule="nonzero"/></g></svg>