<svg xmlns="http://www.w3.org/2000/svg" xmlns:xlink="http://www.w3.org/1999/xlink" width="500" zoomAndPan="magnify" viewBox="0 0 375 374.999991" height="500" preserveAspectRatio="xMidYMid meet" version="1.0"><defs><clipPath id="eb23edef73"><path d="M 210 132 L 329.4375 132 L 329.4375 330.257812 L 210 330.257812 Z M 210 132 " clip-rule="nonzero"/></clipPath><clipPath id="791e6da737"><path d="M 46 132 L 166 132 L 166 330.257812 L 46 330.257812 Z M 46 132 " clip-rule="nonzero"/></clipPath><clipPath id="88aab55501"><path d="M 180 44.507812 L 206 44.507812 L 206 70 L 180 70 Z M 180 44.507812 " clip-rule="nonzero"/></clipPath><clipPath id="2c65005f27"><path d="M 112 44.507812 L 138 44.507812 L 138 70 L 112 70 Z M 112 44.507812 " clip-rule="nonzero"/></clipPath></defs><g clip-path="url(#eb23edef73)"><path fill="#010080" d="M 299.644531 203.9375 L 299.644531 146.878906 C 299.644531 138.785156 306.285156 132.195312 314.445312 132.195312 C 322.574219 132.195312 329.160156 138.785156 329.160156 146.878906 L 329.160156 225.015625 C 329.160156 235.816406 325.265625 246.257812 318.273438 254.40625 L 269.441406 306.152344 C 264.597656 310.703125 263.410156 314.734375 263.410156 320.839844 L 263.410156 330.257812 L 210.261719 330.257812 L 210.199219 307.84375 C 210.199219 299.308594 209.503906 287.898438 220.210938 276.707031 L 282.164062 214.628906 C 284.371094 212.503906 287.265625 211.34375 290.332031 211.34375 C 296.816406 211.34375 302.089844 216.59375 302.089844 223.050781 C 302.089844 225.84375 301.097656 228.550781 299.292969 230.683594 L 269.410156 262.625 C 267.46875 264.890625 264.199219 269.160156 262.566406 274.394531 C 261.6875 277.109375 261.4375 279.761719 261.386719 282.796875 L 271.007812 282.796875 C 271.046875 280.632812 271.203125 278.894531 271.726562 277.277344 C 272.664062 274.257812 274.539062 271.546875 275.949219 269.804688 L 306.285156 236.582031 C 310.097656 232.746094 312.1875 227.777344 312.1875 222.554688 C 312.1875 214.710938 307.460938 207.5 299.644531 203.9375 Z M 299.644531 203.9375 " fill-opacity="1" fill-rule="nonzero"/></g><g clip-path="url(#791e6da737)"><path fill="#010080" d="M 75.734375 203.9375 L 75.734375 146.878906 C 75.734375 138.785156 69.09375 132.195312 60.933594 132.195312 C 52.804688 132.195312 46.222656 138.785156 46.222656 146.878906 L 46.222656 225.015625 C 46.222656 235.816406 50.117188 246.257812 57.109375 254.40625 L 105.941406 306.148438 C 110.785156 310.699219 111.972656 314.730469 111.972656 320.835938 L 111.972656 330.257812 L 165.117188 330.257812 L 165.179688 307.84375 C 165.179688 299.308594 165.878906 287.898438 155.171875 276.707031 L 93.214844 214.632812 C 91.007812 212.511719 88.113281 211.351562 85.046875 211.351562 C 78.566406 211.351562 73.289062 216.601562 73.289062 223.058594 C 73.289062 225.851562 74.277344 228.554688 76.089844 230.6875 L 105.972656 262.628906 C 107.910156 264.894531 111.1875 269.164062 112.816406 274.394531 C 113.695312 277.113281 113.941406 279.765625 113.996094 282.800781 L 104.375 282.800781 C 104.335938 280.632812 104.175781 278.894531 103.65625 277.28125 C 102.71875 274.261719 100.839844 271.550781 99.433594 269.808594 L 69.09375 236.582031 C 65.277344 232.746094 63.195312 227.777344 63.195312 222.554688 C 63.195312 214.710938 67.914062 207.5 75.734375 203.9375 Z M 75.734375 203.9375 " fill-opacity="1" fill-rule="nonzero"/></g><g clip-path="url(#88aab55501)"><path fill="#010080" d="M 193.28125 69.78125 C 200.253906 69.78125 205.898438 64.140625 205.898438 57.1875 C 205.898438 50.246094 200.253906 44.597656 193.28125 44.597656 C 186.320312 44.597656 180.679688 50.25 180.679688 57.1875 C 180.679688 64.140625 186.320312 69.78125 193.28125 69.78125 Z M 193.28125 69.78125 " fill-opacity="1" fill-rule="nonzero"/></g><g clip-path="url(#2c65005f27)"><path fill="#010080" d="M 124.835938 69.851562 C 117.765625 69.851562 112.042969 64.191406 112.042969 57.175781 C 112.042969 50.175781 117.765625 44.507812 124.835938 44.507812 C 131.90625 44.507812 137.652344 50.175781 137.652344 57.175781 C 137.652344 64.191406 131.90625 69.851562 124.835938 69.851562 Z M 124.835938 69.851562 " fill-opacity="1" fill-rule="nonzero"/></g><path fill="#010080" d="M 264.816406 109.617188 C 264.816406 110.199219 264.757812 110.773438 264.644531 111.339844 C 264.53125 111.910156 264.363281 112.460938 264.140625 112.996094 C 263.921875 113.53125 263.648438 114.042969 263.324219 114.523438 C 263.003906 115.003906 262.636719 115.453125 262.222656 115.863281 C 261.8125 116.273438 261.367188 116.636719 260.882812 116.960938 C 260.398438 117.28125 259.890625 117.554688 259.355469 117.777344 C 258.816406 117.996094 258.261719 118.164062 257.695312 118.277344 C 257.125 118.390625 256.546875 118.449219 255.96875 118.449219 C 255.386719 118.449219 254.8125 118.390625 254.242188 118.277344 C 253.671875 118.164062 253.117188 117.996094 252.582031 117.777344 C 252.042969 117.554688 251.535156 117.28125 251.050781 116.960938 C 250.566406 116.636719 250.121094 116.273438 249.710938 115.863281 C 249.300781 115.453125 248.933594 115.003906 248.609375 114.523438 C 248.289062 114.042969 248.015625 113.53125 247.792969 112.996094 C 247.570312 112.460938 247.402344 111.910156 247.289062 111.339844 C 247.175781 110.773438 247.117188 110.199219 247.117188 109.617188 C 247.117188 109.039062 247.175781 108.464844 247.289062 107.894531 C 247.402344 107.328125 247.570312 106.773438 247.792969 106.238281 C 248.015625 105.703125 248.289062 105.195312 248.609375 104.710938 C 248.933594 104.230469 249.300781 103.785156 249.710938 103.375 C 250.121094 102.964844 250.566406 102.597656 251.050781 102.277344 C 251.535156 101.953125 252.042969 101.683594 252.582031 101.460938 C 253.117188 101.238281 253.671875 101.070312 254.242188 100.957031 C 254.8125 100.84375 255.386719 100.789062 255.96875 100.789062 C 256.546875 100.789062 257.125 100.84375 257.695312 100.957031 C 258.261719 101.070312 258.816406 101.238281 259.355469 101.460938 C 259.890625 101.683594 260.398438 101.953125 260.882812 102.277344 C 261.367188 102.597656 261.8125 102.964844 262.222656 103.375 C 262.636719 103.785156 263.003906 104.230469 263.324219 104.710938 C 263.648438 105.195312 263.921875 105.703125 264.140625 106.238281 C 264.363281 106.773438 264.53125 107.328125 264.644531 107.894531 C 264.757812 108.464844 264.816406 109.039062 264.816406 109.617188 Z M 264.816406 109.617188 " fill-opacity="1" fill-rule="nonzero"/><path fill="#010080" d="M 268.78125 122.800781 L 244.90625 122.800781 C 244.800781 122.800781 236.917969 122.085938 236.917969 122.085938 L 226.921875 87.3125 C 222.894531 73.3125 211.128906 73.738281 211.128906 73.738281 L 178.769531 73.738281 C 178.769531 73.738281 167.015625 73.3125 162.992188 87.3125 L 158.058594 104.433594 L 153.132812 87.3125 C 149.089844 73.3125 137.351562 73.738281 137.351562 73.738281 L 112.3125 73.738281 C 112.3125 73.738281 100.550781 73.3125 96.523438 87.3125 L 86.441406 122.355469 C 85.488281 125.632812 87.28125 128.125 90.15625 128.953125 C 93.023438 129.769531 95.960938 128.324219 96.699219 125.714844 L 106.515625 91.558594 L 111.300781 91.550781 L 96.96875 150.6875 L 109.632812 150.6875 L 109.632812 192.695312 C 109.632812 196.15625 112.429688 198.976562 115.90625 198.976562 C 119.371094 198.976562 122.207031 196.15625 122.207031 192.695312 L 122.207031 150.6875 L 127.519531 150.6875 L 127.519531 192.695312 C 127.519531 196.15625 130.316406 198.976562 133.78125 198.976562 C 137.265625 198.976562 140.09375 196.15625 140.09375 192.695312 L 140.09375 150.6875 L 152.539062 150.6875 L 138.355469 91.550781 L 143.121094 91.558594 L 152.828125 125.355469 C 152.988281 125.929688 153.246094 126.460938 153.585938 126.917969 C 154.539062 128.351562 156.191406 129.148438 158.042969 129.089844 C 159.890625 129.148438 161.539062 128.363281 162.488281 126.945312 C 162.886719 126.4375 163.15625 125.847656 163.316406 125.203125 L 172.976562 91.554688 L 177.378906 91.546875 L 177.378906 191.480469 C 177.378906 195.570312 180.726562 198.867188 184.8125 198.867188 C 188.894531 198.867188 192.210938 195.570312 192.210938 191.480469 L 192.210938 134.625 L 197.683594 134.625 L 197.683594 191.480469 C 197.683594 195.570312 201 198.867188 205.074219 198.867188 C 209.171875 198.867188 212.527344 195.570312 212.527344 191.480469 L 212.527344 91.546875 L 217.3125 91.554688 L 226.710938 125.710938 C 227.21875 127.394531 228.625 128.503906 230.316406 128.929688 C 230.382812 128.949219 230.425781 128.980469 230.488281 128.996094 C 231.980469 129.335938 238.890625 131.289062 243.960938 132.734375 L 243.960938 194.714844 C 243.960938 197.574219 246.304688 199.894531 249.171875 199.894531 C 252.039062 199.894531 254.367188 197.574219 254.367188 194.714844 L 254.367188 163.75 L 258.441406 163.75 L 258.441406 194.714844 C 258.441406 197.574219 260.765625 199.894531 263.632812 199.894531 C 266.5 199.894531 268.855469 197.574219 268.855469 194.714844 L 268.855469 136.820312 L 272.851562 136.820312 L 272.851562 156.433594 C 272.851562 158.585938 274.597656 160.320312 276.730469 160.320312 C 278.863281 160.320312 280.554688 158.585938 280.554688 156.433594 L 280.554688 134.117188 C 280.558594 127.875 275.046875 122.800781 268.78125 122.800781 Z M 268.78125 122.800781 " fill-opacity="1" fill-rule="nonzero"/></svg>