<svg xmlns="http://www.w3.org/2000/svg" xmlns:xlink="http://www.w3.org/1999/xlink" width="500" zoomAndPan="magnify" viewBox="0 0 375 374.999991" height="500" preserveAspectRatio="xMidYMid meet" version="1.0"><defs><clipPath id="c7278dc53c"><path d="M 60.726562 44.859375 L 205 44.859375 L 205 290 L 60.726562 290 Z M 60.726562 44.859375 " clip-rule="nonzero"/></clipPath><clipPath id="0452269280"><path d="M 136 85 L 314 85 L 314 329.859375 L 136 329.859375 Z M 136 85 " clip-rule="nonzero"/></clipPath></defs><g clip-path="url(#c7278dc53c)"><path fill="#010080" d="M 156.757812 44.859375 C 160.367188 45.683594 164.050781 46.285156 167.660156 47.261719 C 182.851562 51.621094 194.882812 60.335938 204.210938 73.335938 C 175.480469 82.425781 155.929688 100.835938 147.808594 129.914062 C 139.535156 159.667969 148.785156 184.765625 170.367188 206.105469 C 140.210938 225.640625 120.585938 251.1875 122.390625 289.207031 C 121.335938 289.285156 120.507812 289.433594 119.683594 289.433594 C 109.980469 289.433594 100.28125 289.507812 90.503906 289.433594 C 75.3125 289.359375 63.957031 279.664062 61.324219 264.714844 C 61.25 264.035156 61.023438 263.4375 60.800781 262.835938 L 60.800781 237.4375 C 60.949219 236.6875 61.25 235.933594 61.324219 235.183594 C 62.152344 226.242188 65.011719 217.902344 69.523438 210.238281 C 80.878906 191.078125 97.722656 178.605469 118.101562 170.488281 C 119.457031 169.964844 120.808594 169.4375 121.5625 169.136719 C 115.09375 163.726562 108.175781 158.769531 102.234375 152.832031 C 91.03125 141.5625 83.886719 127.886719 83.585938 111.503906 C 82.984375 81.601562 103.738281 54.550781 132.765625 47.113281 C 136.078125 46.285156 139.460938 45.609375 142.84375 44.859375 Z M 156.757812 44.859375 " fill-opacity="1" fill-rule="nonzero"/></g><g clip-path="url(#0452269280)"><path fill="#010080" d="M 197.816406 209.261719 C 193.378906 206.03125 188.792969 203.097656 184.65625 199.566406 C 172.324219 189.125 163 176.5 160.292969 160.195312 C 157.207031 141.636719 161.945312 124.730469 173.828125 110.304688 C 190.824219 89.566406 213.160156 81.148438 239.402344 86.859375 C 267.078125 92.871094 284.222656 110.828125 290.390625 138.480469 C 295.128906 159.59375 288.136719 177.628906 273.546875 192.804688 C 268.054688 198.441406 261.289062 202.875 255.046875 207.832031 C 254.445312 208.285156 253.84375 208.660156 252.863281 209.261719 C 256.398438 210.761719 259.707031 211.964844 262.867188 213.46875 C 282.117188 222.484375 297.835938 235.332031 307.6875 254.570312 C 311.824219 262.609375 314.15625 271.175781 313.855469 280.339844 C 313.628906 287.628906 313.777344 294.917969 313.777344 302.28125 C 313.777344 315.28125 304.152344 326.925781 291.367188 329.332031 C 289.414062 329.707031 287.382812 329.859375 285.351562 329.859375 L 165.554688 329.859375 C 150.363281 329.859375 137.503906 318.210938 137.054688 303.035156 C 136.753906 292.214844 136.527344 281.242188 138.105469 270.574219 C 140.589844 253.96875 150.289062 240.96875 162.621094 229.925781 C 172.25 221.28125 183.304688 214.972656 195.410156 210.464844 C 196.164062 210.164062 196.839844 209.9375 197.515625 209.636719 C 197.742188 209.5625 197.816406 209.335938 197.816406 209.261719 Z M 197.816406 209.261719 " fill-opacity="1" fill-rule="nonzero"/></g></svg>